<svg width="1216px" height="1216px" viewBox="0 0 1216 1216" version="1.1" 
  xmlns="http://www.w3.org/2000/svg" 
  xmlns:xlink="http://www.w3.org/1999/xlink">
  <g id="Purchase" stroke="none" stroke-width="1" fill="none" fill-rule="evenodd" opacity="0.479910714">
    <g id="Group" transform="translate(-13.000000, -119.000000)" stroke="rgba(0, 0, 0, .2)">
      <g id="Waves" transform="translate(16.000000, 122.000000)">
        <g id="Path-2" opacity="0.870210193">
          <path d="M508.444639,380 L701.555361,380 C746.21836,380 762.414243,384.650346 778.742368,393.382722 C795.070493,402.115099 807.884901,414.929507 816.617278,431.257632 C825.349654,447.585757 830,463.78164 830,508.444639 L830,701.555361 C830,746.21836 825.349654,762.414243 816.617278,778.742368 C807.884901,795.070493 795.070493,807.884901 778.742368,816.617278 C762.414243,825.349654 746.21836,830 701.555361,830 L508.444639,830 C463.78164,830 447.585757,825.349654 431.257632,816.617278 C414.929507,807.884901 402.115099,795.070493 393.382722,778.742368 C384.650346,762.414243 380,746.21836 380,701.555361 L380,508.444639 C380,463.78164 384.650346,447.585757 393.382722,431.257632 C402.115099,414.929507 414.929507,402.115099 431.257632,393.382722 C447.585757,384.650346 463.78164,380 508.444639,380 Z" id="Path" stroke-width="2.09302326" opacity="0.8"></path>
          <path d="M504.15329,370 L705.84671,370 C752.494732,370 769.410431,374.857028 786.464251,383.97751 C803.51807,393.097992 816.902008,406.48193 826.02249,423.535749 C835.142972,440.589569 840,457.505268 840,504.15329 L840,705.84671 C840,752.494732 835.142972,769.410431 826.02249,786.464251 C816.902008,803.51807 803.51807,816.902008 786.464251,826.02249 C769.410431,835.142972 752.494732,840 705.84671,840 L504.15329,840 C457.505268,840 440.589569,835.142972 423.535749,826.02249 C406.48193,816.902008 393.097992,803.51807 383.97751,786.464251 C374.857028,769.410431 370,752.494732 370,705.84671 L370,504.15329 C370,457.505268 374.857028,440.589569 383.97751,423.535749 C393.097992,406.48193 406.48193,393.097992 423.535749,383.97751 C440.589569,374.857028 457.505268,370 504.15329,370 Z" id="Path" stroke-width="2.18604651" opacity="0.78"></path>
          <path d="M499.861941,360 L710.138059,360 C758.771103,360 776.40662,365.06371 794.186134,374.572298 C811.965648,384.080886 825.919114,398.034352 835.427702,415.813866 C844.93629,433.59338 850,451.228897 850,499.861941 L850,710.138059 C850,758.771103 844.93629,776.40662 835.427702,794.186134 C825.919114,811.965648 811.965648,825.919114 794.186134,835.427702 C776.40662,844.93629 758.771103,850 710.138059,850 L499.861941,850 C451.228897,850 433.59338,844.93629 415.813866,835.427702 C398.034352,825.919114 384.080886,811.965648 374.572298,794.186134 C365.06371,776.40662 360,758.771103 360,710.138059 L360,499.861941 C360,451.228897 365.06371,433.59338 374.572298,415.813866 C384.080886,398.034352 398.034352,384.080886 415.813866,374.572298 C433.59338,365.06371 451.228897,360 499.861941,360 Z" id="Path" stroke-width="2.27906977" opacity="0.76"></path>
          <path d="M495.570591,350 L714.429409,350 C765.047475,350 783.402808,355.270392 801.908017,365.167085 C820.413225,375.063779 834.936221,389.586775 844.832915,408.091983 C854.729608,426.597192 860,444.952525 860,495.570591 L860,714.429409 C860,765.047475 854.729608,783.402808 844.832915,801.908017 C834.936221,820.413225 820.413225,834.936221 801.908017,844.832915 C783.402808,854.729608 765.047475,860 714.429409,860 L495.570591,860 C444.952525,860 426.597192,854.729608 408.091983,844.832915 C389.586775,834.936221 375.063779,820.413225 365.167085,801.908017 C355.270392,783.402808 350,765.047475 350,714.429409 L350,495.570591 C350,444.952525 355.270392,426.597192 365.167085,408.091983 C375.063779,389.586775 389.586775,375.063779 408.091983,365.167085 C426.597192,355.270392 444.952525,350 495.570591,350 Z" id="Path" stroke-width="2.37209302" opacity="0.74"></path>
          <path d="M491.279242,340 L718.720758,340 C771.323846,340 790.398997,345.477074 809.6299,355.761873 C828.860803,366.046672 843.953328,381.139197 854.238127,400.3701 C864.522926,419.601003 870,438.676154 870,491.279242 L870,718.720758 C870,771.323846 864.522926,790.398997 854.238127,809.6299 C843.953328,828.860803 828.860803,843.953328 809.6299,854.238127 C790.398997,864.522926 771.323846,870 718.720758,870 L491.279242,870 C438.676154,870 419.601003,864.522926 400.3701,854.238127 C381.139197,843.953328 366.046672,828.860803 355.761873,809.6299 C345.477074,790.398997 340,771.323846 340,718.720758 L340,491.279242 C340,438.676154 345.477074,419.601003 355.761873,400.3701 C366.046672,381.139197 381.139197,366.046672 400.3701,355.761873 C419.601003,345.477074 438.676154,340 491.279242,340 Z" id="Path" stroke-width="2.46511628" opacity="0.72"></path>
          <path d="M486.987893,330 L723.012107,330 C777.600218,330 797.395186,335.683756 817.351783,346.356661 C837.30838,357.029566 852.970434,372.69162 863.643339,392.648217 C874.316244,412.604814 880,432.399782 880,486.987893 L880,723.012107 C880,777.600218 874.316244,797.395186 863.643339,817.351783 C852.970434,837.30838 837.30838,852.970434 817.351783,863.643339 C797.395186,874.316244 777.600218,880 723.012107,880 L486.987893,880 C432.399782,880 412.604814,874.316244 392.648217,863.643339 C372.69162,852.970434 357.029566,837.30838 346.356661,817.351783 C335.683756,797.395186 330,777.600218 330,723.012107 L330,486.987893 C330,432.399782 335.683756,412.604814 346.356661,392.648217 C357.029566,372.69162 372.69162,357.029566 392.648217,346.356661 C412.604814,335.683756 432.399782,330 486.987893,330 Z" id="Path" stroke-width="2.55813953" opacity="0.7"></path>
          <path d="M482.696543,320 L727.303457,320 C783.876589,320 804.391374,325.890438 825.073666,336.951448 C845.755958,348.012459 861.987541,364.244042 873.048552,384.926334 C884.109562,405.608626 890,426.123411 890,482.696543 L890,727.303457 C890,783.876589 884.109562,804.391374 873.048552,825.073666 C861.987541,845.755958 845.755958,861.987541 825.073666,873.048552 C804.391374,884.109562 783.876589,890 727.303457,890 L482.696543,890 C426.123411,890 405.608626,884.109562 384.926334,873.048552 C364.244042,861.987541 348.012459,845.755958 336.951448,825.073666 C325.890438,804.391374 320,783.876589 320,727.303457 L320,482.696543 C320,426.123411 325.890438,405.608626 336.951448,384.926334 C348.012459,364.244042 364.244042,348.012459 384.926334,336.951448 C405.608626,325.890438 426.123411,320 482.696543,320 Z" id="Path" stroke-width="2.65116279" opacity="0.68"></path>
          <path d="M478.405194,310 L731.594806,310 C790.152961,310 811.387563,316.09712 832.795549,327.546236 C854.203535,338.995352 871.004648,355.796465 882.453764,377.204451 C893.90288,398.612437 900,419.847039 900,478.405194 L900,731.594806 C900,790.152961 893.90288,811.387563 882.453764,832.795549 C871.004648,854.203535 854.203535,871.004648 832.795549,882.453764 C811.387563,893.90288 790.152961,900 731.594806,900 L478.405194,900 C419.847039,900 398.612437,893.90288 377.204451,882.453764 C355.796465,871.004648 338.995352,854.203535 327.546236,832.795549 C316.09712,811.387563 310,790.152961 310,731.594806 L310,478.405194 C310,419.847039 316.09712,398.612437 327.546236,377.204451 C338.995352,355.796465 355.796465,338.995352 377.204451,327.546236 C398.612437,316.09712 419.847039,310 478.405194,310 Z" id="Path" stroke-width="2.74418605" opacity="0.64"></path>
          <path d="M474.113845,300 L735.886155,300 C796.429332,300 818.383751,306.303802 840.517432,318.141024 C862.651112,329.978246 880.021754,347.348888 891.858976,369.482568 C903.696198,391.616249 910,413.570668 910,474.113845 L910,735.886155 C910,796.429332 903.696198,818.383751 891.858976,840.517432 C880.021754,862.651112 862.651112,880.021754 840.517432,891.858976 C818.383751,903.696198 796.429332,910 735.886155,910 L474.113845,910 C413.570668,910 391.616249,903.696198 369.482568,891.858976 C347.348888,880.021754 329.978246,862.651112 318.141024,840.517432 C306.303802,818.383751 300,796.429332 300,735.886155 L300,474.113845 C300,413.570668 306.303802,391.616249 318.141024,369.482568 C329.978246,347.348888 347.348888,329.978246 369.482568,318.141024 C391.616249,306.303802 413.570668,300 474.113845,300 Z" id="Path" stroke-width="2.8372093" opacity="0.62"></path>
          <path d="M469.822495,290 L740.177505,290 C802.705704,290 825.37994,296.510484 848.239315,308.735811 C871.09869,320.961139 889.038861,338.90131 901.264189,361.760685 C913.489516,384.62006 920,407.294296 920,469.822495 L920,740.177505 C920,802.705704 913.489516,825.37994 901.264189,848.239315 C889.038861,871.09869 871.09869,889.038861 848.239315,901.264189 C825.37994,913.489516 802.705704,920 740.177505,920 L469.822495,920 C407.294296,920 384.62006,913.489516 361.760685,901.264189 C338.90131,889.038861 320.961139,871.09869 308.735811,848.239315 C296.510484,825.37994 290,802.705704 290,740.177505 L290,469.822495 C290,407.294296 296.510484,384.62006 308.735811,361.760685 C320.961139,338.90131 338.90131,320.961139 361.760685,308.735811 C384.62006,296.510484 407.294296,290 469.822495,290 Z" id="Path" stroke-width="2.93023256" opacity="0.6"></path>
          <path d="M465.531146,280 L744.468854,280 C808.982075,280 832.376128,286.717166 855.961198,299.330599 C879.546267,311.944032 898.055968,330.453733 910.669401,354.038802 C923.282834,377.623872 930,401.017925 930,465.531146 L930,744.468854 C930,808.982075 923.282834,832.376128 910.669401,855.961198 C898.055968,879.546267 879.546267,898.055968 855.961198,910.669401 C832.376128,923.282834 808.982075,930 744.468854,930 L465.531146,930 C401.017925,930 377.623872,923.282834 354.038802,910.669401 C330.453733,898.055968 311.944032,879.546267 299.330599,855.961198 C286.717166,832.376128 280,808.982075 280,744.468854 L280,465.531146 C280,401.017925 286.717166,377.623872 299.330599,354.038802 C311.944032,330.453733 330.453733,311.944032 354.038802,299.330599 C377.623872,286.717166 401.017925,280 465.531146,280 Z" id="Path" stroke-width="3.02325581" opacity="0.58"></path>
          <path d="M461.239796,270 L748.760204,270 C815.258447,270 839.372317,276.923848 863.683081,289.925387 C887.993845,302.926925 907.073075,322.006155 920.074613,346.316919 C933.076152,370.627683 940,394.741553 940,461.239796 L940,748.760204 C940,815.258447 933.076152,839.372317 920.074613,863.683081 C907.073075,887.993845 887.993845,907.073075 863.683081,920.074613 C839.372317,933.076152 815.258447,940 748.760204,940 L461.239796,940 C394.741553,940 370.627683,933.076152 346.316919,920.074613 C322.006155,907.073075 302.926925,887.993845 289.925387,863.683081 C276.923848,839.372317 270,815.258447 270,748.760204 L270,461.239796 C270,394.741553 276.923848,370.627683 289.925387,346.316919 C302.926925,322.006155 322.006155,302.926925 346.316919,289.925387 C370.627683,276.923848 394.741553,270 461.239796,270 Z" id="Path" stroke-width="3.11627907" opacity="0.56"></path>
          <path d="M456.948447,260 L753.051553,260 C821.534819,260 846.368506,267.13053 871.404964,280.520174 C896.441422,293.909819 916.090181,313.558578 929.479826,338.595036 C942.86947,363.631494 950,388.465181 950,456.948447 L950,753.051553 C950,821.534819 942.86947,846.368506 929.479826,871.404964 C916.090181,896.441422 896.441422,916.090181 871.404964,929.479826 C846.368506,942.86947 821.534819,950 753.051553,950 L456.948447,950 C388.465181,950 363.631494,942.86947 338.595036,929.479826 C313.558578,916.090181 293.909819,896.441422 280.520174,871.404964 C267.13053,846.368506 260,821.534819 260,753.051553 L260,456.948447 C260,388.465181 267.13053,363.631494 280.520174,338.595036 C293.909819,313.558578 313.558578,293.909819 338.595036,280.520174 C363.631494,267.13053 388.465181,260 456.948447,260 Z" id="Path" stroke-width="3.20930233" opacity="0.54"></path>
          <path d="M452.657098,250 L757.342902,250 C827.81119,250 853.364694,257.337212 879.126847,271.114962 C904.889,284.892712 925.107288,305.111 938.885038,330.873153 C952.662788,356.635306 960,382.18881 960,452.657098 L960,757.342902 C960,827.81119 952.662788,853.364694 938.885038,879.126847 C925.107288,904.889 904.889,925.107288 879.126847,938.885038 C853.364694,952.662788 827.81119,960 757.342902,960 L452.657098,960 C382.18881,960 356.635306,952.662788 330.873153,938.885038 C305.111,925.107288 284.892712,904.889 271.114962,879.126847 C257.337212,853.364694 250,827.81119 250,757.342902 L250,452.657098 C250,382.18881 257.337212,356.635306 271.114962,330.873153 C284.892712,305.111 305.111,284.892712 330.873153,271.114962 C356.635306,257.337212 382.18881,250 452.657098,250 Z" id="Path" stroke-width="3.30232558" opacity="0.52"></path>
          <path d="M448.365748,240 L761.634252,240 C834.087562,240 860.360883,247.543894 886.84873,261.70975 C913.336577,275.875605 934.124395,296.663423 948.29025,323.15127 C962.456106,349.639117 970,375.912438 970,448.365748 L970,761.634252 C970,834.087562 962.456106,860.360883 948.29025,886.84873 C934.124395,913.336577 913.336577,934.124395 886.84873,948.29025 C860.360883,962.456106 834.087562,970 761.634252,970 L448.365748,970 C375.912438,970 349.639117,962.456106 323.15127,948.29025 C296.663423,934.124395 275.875605,913.336577 261.70975,886.84873 C247.543894,860.360883 240,834.087562 240,761.634252 L240,448.365748 C240,375.912438 247.543894,349.639117 261.70975,323.15127 C275.875605,296.663423 296.663423,275.875605 323.15127,261.70975 C349.639117,247.543894 375.912438,240 448.365748,240 Z" id="Path" stroke-width="3.39534884" opacity="0.5"></path>
          <path d="M444.074399,230 L765.925601,230 C840.363933,230 867.357071,237.750576 894.570613,252.304537 C921.784155,266.858499 943.141501,288.215845 957.695463,315.429387 C972.249424,342.642929 980,369.636067 980,444.074399 L980,765.925601 C980,840.363933 972.249424,867.357071 957.695463,894.570613 C943.141501,921.784155 921.784155,943.141501 894.570613,957.695463 C867.357071,972.249424 840.363933,980 765.925601,980 L444.074399,980 C369.636067,980 342.642929,972.249424 315.429387,957.695463 C288.215845,943.141501 266.858499,921.784155 252.304537,894.570613 C237.750576,867.357071 230,840.363933 230,765.925601 L230,444.074399 C230,369.636067 237.750576,342.642929 252.304537,315.429387 C266.858499,288.215845 288.215845,266.858499 315.429387,252.304537 C342.642929,237.750576 369.636067,230 444.074399,230 Z" id="Path" stroke-width="3.48837209" opacity="0.48"></path>
          <path d="M439.78305,220 L770.21695,220 C846.640305,220 874.35326,227.957258 902.292496,242.899325 C930.231732,257.841392 952.158608,279.768268 967.100675,307.707504 C982.042742,335.64674 990,363.359695 990,439.78305 L990,770.21695 C990,846.640305 982.042742,874.35326 967.100675,902.292496 C952.158608,930.231732 930.231732,952.158608 902.292496,967.100675 C874.35326,982.042742 846.640305,990 770.21695,990 L439.78305,990 C363.359695,990 335.64674,982.042742 307.707504,967.100675 C279.768268,952.158608 257.841392,930.231732 242.899325,902.292496 C227.957258,874.35326 220,846.640305 220,770.21695 L220,439.78305 C220,363.359695 227.957258,335.64674 242.899325,307.707504 C257.841392,279.768268 279.768268,257.841392 307.707504,242.899325 C335.64674,227.957258 363.359695,220 439.78305,220 Z" id="Path" stroke-width="3.58139535" opacity="0.46"></path>
          <path d="M435.4917,210 L774.5083,210 C852.916676,210 881.349448,218.16394 910.014379,233.494113 C938.67931,248.824285 961.175715,271.32069 976.505887,299.985621 C991.83606,328.650552 1000,357.083324 1000,435.4917 L1000,774.5083 C1000,852.916676 991.83606,881.349448 976.505887,910.014379 C961.175715,938.67931 938.67931,961.175715 910.014379,976.505887 C881.349448,991.83606 852.916676,1000 774.5083,1000 L435.4917,1000 C357.083324,1000 328.650552,991.83606 299.985621,976.505887 C271.32069,961.175715 248.824285,938.67931 233.494113,910.014379 C218.16394,881.349448 210,852.916676 210,774.5083 L210,435.4917 C210,357.083324 218.16394,328.650552 233.494113,299.985621 C248.824285,271.32069 271.32069,248.824285 299.985621,233.494113 C328.650552,218.16394 357.083324,210 435.4917,210 Z" id="Path" stroke-width="3.6744186" opacity="0.44"></path>
          <path d="M431.200351,200 L778.799649,200 C859.193048,200 888.345637,208.370622 917.736262,224.0889 C947.126887,239.807179 970.192821,262.873113 985.9111,292.263738 C1001.62938,321.654363 1010,350.806952 1010,431.200351 L1010,778.799649 C1010,859.193048 1001.62938,888.345637 985.9111,917.736262 C970.192821,947.126887 947.126887,970.192821 917.736262,985.9111 C888.345637,1001.62938 859.193048,1010 778.799649,1010 L431.200351,1010 C350.806952,1010 321.654363,1001.62938 292.263738,985.9111 C262.873113,970.192821 239.807179,947.126887 224.0889,917.736262 C208.370622,888.345637 200,859.193048 200,778.799649 L200,431.200351 C200,350.806952 208.370622,321.654363 224.0889,292.263738 C239.807179,262.873113 262.873113,239.807179 292.263738,224.0889 C321.654363,208.370622 350.806952,200 431.200351,200 Z" id="Path" stroke-width="3.76744186" opacity="0.42"></path>
          <path d="M426.909002,190 L783.090998,190 C865.469419,190 895.341826,198.577304 925.458145,214.683688 C955.574464,230.790072 979.209928,254.425536 995.316312,284.541855 C1011.4227,314.658174 1020,344.530581 1020,426.909002 L1020,783.090998 C1020,865.469419 1011.4227,895.341826 995.316312,925.458145 C979.209928,955.574464 955.574464,979.209928 925.458145,995.316312 C895.341826,1011.4227 865.469419,1020 783.090998,1020 L426.909002,1020 C344.530581,1020 314.658174,1011.4227 284.541855,995.316312 C254.425536,979.209928 230.790072,955.574464 214.683688,925.458145 C198.577304,895.341826 190,865.469419 190,783.090998 L190,426.909002 C190,344.530581 198.577304,314.658174 214.683688,284.541855 C230.790072,254.425536 254.425536,230.790072 284.541855,214.683688 C314.658174,198.577304 344.530581,190 426.909002,190 Z" id="Path" stroke-width="3.86046512" opacity="0.4"></path>
          <path d="M422.617652,180 L787.382348,180 C871.745791,180 902.338014,188.783986 933.180028,205.278476 C964.022042,221.772965 988.227035,245.977958 1004.72152,276.819972 C1021.21601,307.661986 1030,338.254209 1030,422.617652 L1030,787.382348 C1030,871.745791 1021.21601,902.338014 1004.72152,933.180028 C988.227035,964.022042 964.022042,988.227035 933.180028,1004.72152 C902.338014,1021.21601 871.745791,1030 787.382348,1030 L422.617652,1030 C338.254209,1030 307.661986,1021.21601 276.819972,1004.72152 C245.977958,988.227035 221.772965,964.022042 205.278476,933.180028 C188.783986,902.338014 180,871.745791 180,787.382348 L180,422.617652 C180,338.254209 188.783986,307.661986 205.278476,276.819972 C221.772965,245.977958 245.977958,221.772965 276.819972,205.278476 C307.661986,188.783986 338.254209,180 422.617652,180 Z" id="Path" stroke-width="3.95348837" opacity="0.38"></path>
          <path d="M418.326303,170 L791.673697,170 C878.022163,170 909.334203,178.990668 940.901911,195.873263 C972.469619,212.755858 997.244142,237.530381 1014.12674,269.098089 C1031.00933,300.665797 1040,331.977837 1040,418.326303 L1040,791.673697 C1040,878.022163 1031.00933,909.334203 1014.12674,940.901911 C997.244142,972.469619 972.469619,997.244142 940.901911,1014.12674 C909.334203,1031.00933 878.022163,1040 791.673697,1040 L418.326303,1040 C331.977837,1040 300.665797,1031.00933 269.098089,1014.12674 C237.530381,997.244142 212.755858,972.469619 195.873263,940.901911 C178.990668,909.334203 170,878.022163 170,791.673697 L170,418.326303 C170,331.977837 178.990668,300.665797 195.873263,269.098089 C212.755858,237.530381 237.530381,212.755858 269.098089,195.873263 C300.665797,178.990668 331.977837,170 418.326303,170 Z" id="Path" stroke-width="4.04651163" opacity="0.36"></path>
          <path d="M414.034953,160 L795.965047,160 C884.298534,160 916.330391,169.19735 948.623794,186.468051 C980.917197,203.738752 1006.26125,229.082803 1023.53195,261.376206 C1040.80265,293.669609 1050,325.701466 1050,414.034953 L1050,795.965047 C1050,884.298534 1040.80265,916.330391 1023.53195,948.623794 C1006.26125,980.917197 980.917197,1006.26125 948.623794,1023.53195 C916.330391,1040.80265 884.298534,1050 795.965047,1050 L414.034953,1050 C325.701466,1050 293.669609,1040.80265 261.376206,1023.53195 C229.082803,1006.26125 203.738752,980.917197 186.468051,948.623794 C169.19735,916.330391 160,884.298534 160,795.965047 L160,414.034953 C160,325.701466 169.19735,293.669609 186.468051,261.376206 C203.738752,229.082803 229.082803,203.738752 261.376206,186.468051 C293.669609,169.19735 325.701466,160 414.034953,160 Z" id="Path" stroke-width="4.13953488" opacity="0.34"></path>
          <path d="M409.743604,150 L800.256396,150 C890.574906,150 923.32658,159.404032 956.345677,177.062839 C989.364774,194.721645 1015.27836,220.635226 1032.93716,253.654323 C1050.59597,286.67342 1060,319.425094 1060,409.743604 L1060,800.256396 C1060,890.574906 1050.59597,923.32658 1032.93716,956.345677 C1015.27836,989.364774 989.364774,1015.27836 956.345677,1032.93716 C923.32658,1050.59597 890.574906,1060 800.256396,1060 L409.743604,1060 C319.425094,1060 286.67342,1050.59597 253.654323,1032.93716 C220.635226,1015.27836 194.721645,989.364774 177.062839,956.345677 C159.404032,923.32658 150,890.574906 150,800.256396 L150,409.743604 C150,319.425094 159.404032,286.67342 177.062839,253.654323 C194.721645,220.635226 220.635226,194.721645 253.654323,177.062839 C286.67342,159.404032 319.425094,150 409.743604,150 Z" id="Path" stroke-width="4.23255814" opacity="0.32"></path>
          <path d="M405.452255,140 L804.547745,140 C896.851277,140 930.322768,149.610714 964.06756,167.657626 C997.812352,185.704538 1024.29546,212.187648 1042.34237,245.93244 C1060.38929,279.677232 1070,313.148723 1070,405.452255 L1070,804.547745 C1070,896.851277 1060.38929,930.322768 1042.34237,964.06756 C1024.29546,997.812352 997.812352,1024.29546 964.06756,1042.34237 C930.322768,1060.38929 896.851277,1070 804.547745,1070 L405.452255,1070 C313.148723,1070 279.677232,1060.38929 245.93244,1042.34237 C212.187648,1024.29546 185.704538,997.812352 167.657626,964.06756 C149.610714,930.322768 140,896.851277 140,804.547745 L140,405.452255 C140,313.148723 149.610714,279.677232 167.657626,245.93244 C185.704538,212.187648 212.187648,185.704538 245.93244,167.657626 C279.677232,149.610714 313.148723,140 405.452255,140 Z" id="Path" stroke-width="4.3255814" opacity="0.3"></path>
          <path d="M401.160905,130 L808.839095,130 C903.127649,130 937.318957,139.817396 971.789443,158.252414 C1006.25993,176.687432 1033.31257,203.740071 1051.74759,238.210557 C1070.1826,272.681043 1080,306.872351 1080,401.160905 L1080,808.839095 C1080,903.127649 1070.1826,937.318957 1051.74759,971.789443 C1033.31257,1006.25993 1006.25993,1033.31257 971.789443,1051.74759 C937.318957,1070.1826 903.127649,1080 808.839095,1080 L401.160905,1080 C306.872351,1080 272.681043,1070.1826 238.210557,1051.74759 C203.740071,1033.31257 176.687432,1006.25993 158.252414,971.789443 C139.817396,937.318957 130,903.127649 130,808.839095 L130,401.160905 C130,306.872351 139.817396,272.681043 158.252414,238.210557 C176.687432,203.740071 203.740071,176.687432 238.210557,158.252414 C272.681043,139.817396 306.872351,130 401.160905,130 Z" id="Path" stroke-width="4.41860465" opacity="0.28"></path>
          <path d="M396.869556,120 L813.130444,120 C909.40402,120 944.315146,130.024078 979.511326,148.847202 C1014.70751,167.670325 1042.32968,195.292493 1061.1528,230.488674 C1079.97592,265.684854 1090,300.59598 1090,396.869556 L1090,813.130444 C1090,909.40402 1079.97592,944.315146 1061.1528,979.511326 C1042.32968,1014.70751 1014.70751,1042.32968 979.511326,1061.1528 C944.315146,1079.97592 909.40402,1090 813.130444,1090 L396.869556,1090 C300.59598,1090 265.684854,1079.97592 230.488674,1061.1528 C195.292493,1042.32968 167.670325,1014.70751 148.847202,979.511326 C130.024078,944.315146 120,909.40402 120,813.130444 L120,396.869556 C120,300.59598 130.024078,265.684854 148.847202,230.488674 C167.670325,195.292493 195.292493,167.670325 230.488674,148.847202 C265.684854,130.024078 300.59598,120 396.869556,120 Z" id="Path" stroke-width="4.51162791" opacity="0.26"></path>
          <path d="M392.578207,110 L817.421793,110 C915.680392,110 951.311334,120.23076 987.233209,139.441989 C1023.15508,158.653218 1051.34678,186.844916 1070.55801,222.766791 C1089.76924,258.688666 1100,294.319608 1100,392.578207 L1100,817.421793 C1100,915.680392 1089.76924,951.311334 1070.55801,987.233209 C1051.34678,1023.15508 1023.15508,1051.34678 987.233209,1070.55801 C951.311334,1089.76924 915.680392,1100 817.421793,1100 L392.578207,1100 C294.319608,1100 258.688666,1089.76924 222.766791,1070.55801 C186.844916,1051.34678 158.653218,1023.15508 139.441989,987.233209 C120.23076,951.311334 110,915.680392 110,817.421793 L110,392.578207 C110,294.319608 120.23076,258.688666 139.441989,222.766791 C158.653218,186.844916 186.844916,158.653218 222.766791,139.441989 C258.688666,120.23076 294.319608,110 392.578207,110 Z" id="Path" stroke-width="4.60465116" opacity="0.24"></path>
          <path d="M388.286857,100 L821.713143,100 C921.956763,100 958.307523,110.437442 994.955092,130.036777 C1031.60266,149.636111 1060.36389,178.397338 1079.96322,215.044908 C1099.56256,251.692477 1110,288.043237 1110,388.286857 L1110,821.713143 C1110,921.956763 1099.56256,958.307523 1079.96322,994.955092 C1060.36389,1031.60266 1031.60266,1060.36389 994.955092,1079.96322 C958.307523,1099.56256 921.956763,1110 821.713143,1110 L388.286857,1110 C288.043237,1110 251.692477,1099.56256 215.044908,1079.96322 C178.397338,1060.36389 149.636111,1031.60266 130.036777,994.955092 C110.437442,958.307523 100,921.956763 100,821.713143 L100,388.286857 C100,288.043237 110.437442,251.692477 130.036777,215.044908 C149.636111,178.397338 178.397338,149.636111 215.044908,130.036777 C251.692477,110.437442 288.043237,100 388.286857,100 Z" id="Path" stroke-width="4.69767442" opacity="0.22"></path>
          <path d="M383.995508,90 L826.004492,90 C928.233135,90 965.303711,100.644124 1002.67698,120.631565 C1040.05024,140.619005 1069.381,169.949761 1089.36844,207.323025 C1109.35588,244.696289 1120,281.766865 1120,383.995508 L1120,826.004492 C1120,928.233135 1109.35588,965.303711 1089.36844,1002.67698 C1069.381,1040.05024 1040.05024,1069.381 1002.67698,1089.36844 C965.303711,1109.35588 928.233135,1120 826.004492,1120 L383.995508,1120 C281.766865,1120 244.696289,1109.35588 207.323025,1089.36844 C169.949761,1069.381 140.619005,1040.05024 120.631565,1002.67698 C100.644124,965.303711 90,928.233135 90,826.004492 L90,383.995508 C90,281.766865 100.644124,244.696289 120.631565,207.323025 C140.619005,169.949761 169.949761,140.619005 207.323025,120.631565 C244.696289,100.644124 281.766865,90 383.995508,90 Z" id="Path" stroke-width="4.79069767" opacity="0.2"></path>
          <path d="M379.704159,80 L830.295841,80 C934.509507,80 972.2999,90.8508063 1010.39886,111.226352 C1048.49782,131.601898 1078.3981,161.502184 1098.77365,199.601142 C1119.14919,237.7001 1130,275.490493 1130,379.704159 L1130,830.295841 C1130,934.509507 1119.14919,972.2999 1098.77365,1010.39886 C1078.3981,1048.49782 1048.49782,1078.3981 1010.39886,1098.77365 C972.2999,1119.14919 934.509507,1130 830.295841,1130 L379.704159,1130 C275.490493,1130 237.7001,1119.14919 199.601142,1098.77365 C161.502184,1078.3981 131.601898,1048.49782 111.226352,1010.39886 C90.8508063,972.2999 80,934.509507 80,830.295841 L80,379.704159 C80,275.490493 90.8508063,237.7001 111.226352,199.601142 C131.601898,161.502184 161.502184,131.601898 199.601142,111.226352 C237.7001,90.8508063 275.490493,80 379.704159,80 Z" id="Path" stroke-width="4.88372093" opacity="0.18"></path>
          <path d="M375.412809,70 L834.587191,70 C940.785878,70 979.296088,81.0574883 1018.12074,101.82114 C1056.94539,122.584791 1087.41521,153.054606 1108.17886,191.879259 C1128.94251,230.703912 1140,269.214122 1140,375.412809 L1140,834.587191 C1140,940.785878 1128.94251,979.296088 1108.17886,1018.12074 C1087.41521,1056.94539 1056.94539,1087.41521 1018.12074,1108.17886 C979.296088,1128.94251 940.785878,1140 834.587191,1140 L375.412809,1140 C269.214122,1140 230.703912,1128.94251 191.879259,1108.17886 C153.054606,1087.41521 122.584791,1056.94539 101.82114,1018.12074 C81.0574883,979.296088 70,940.785878 70,834.587191 L70,375.412809 C70,269.214122 81.0574883,230.703912 101.82114,191.879259 C122.584791,153.054606 153.054606,122.584791 191.879259,101.82114 C230.703912,81.0574883 269.214122,70 375.412809,70 Z" id="Path" stroke-width="4.97674419" opacity="0.16"></path>
          <path d="M371.12146,60 L838.87854,60 C947.06225,60 986.292277,71.2641704 1025.84262,92.4159275 C1065.39297,113.567685 1096.43232,144.607029 1117.58407,184.157376 C1138.73583,223.707723 1150,262.93775 1150,371.12146 L1150,838.87854 C1150,947.06225 1138.73583,986.292277 1117.58407,1025.84262 C1096.43232,1065.39297 1065.39297,1096.43232 1025.84262,1117.58407 C986.292277,1138.73583 947.06225,1150 838.87854,1150 L371.12146,1150 C262.93775,1150 223.707723,1138.73583 184.157376,1117.58407 C144.607029,1096.43232 113.567685,1065.39297 92.4159275,1025.84262 C71.2641704,986.292277 60,947.06225 60,838.87854 L60,371.12146 C60,262.93775 71.2641704,223.707723 92.4159275,184.157376 C113.567685,144.607029 144.607029,113.567685 184.157376,92.4159275 C223.707723,71.2641704 262.93775,60 371.12146,60 Z" id="Path" stroke-width="5.06976744" opacity="0.14"></path>
          <path d="M366.830111,50 L843.169889,50 C953.338621,50 993.288465,61.4708524 1033.56451,83.0107152 C1073.84055,104.550578 1105.44942,136.159451 1126.98928,176.435493 C1148.52915,216.711535 1160,256.661379 1160,366.830111 L1160,843.169889 C1160,953.338621 1148.52915,993.288465 1126.98928,1033.56451 C1105.44942,1073.84055 1073.84055,1105.44942 1033.56451,1126.98928 C993.288465,1148.52915 953.338621,1160 843.169889,1160 L366.830111,1160 C256.661379,1160 216.711535,1148.52915 176.435493,1126.98928 C136.159451,1105.44942 104.550578,1073.84055 83.0107152,1033.56451 C61.4708524,993.288465 50,953.338621 50,843.169889 L50,366.830111 C50,256.661379 61.4708524,216.711535 83.0107152,176.435493 C104.550578,136.159451 136.159451,104.550578 176.435493,83.0107152 C216.711535,61.4708524 256.661379,50 366.830111,50 Z" id="Path" stroke-width="5.1627907" opacity="0.12"></path>
          <path d="M362.538761,40 L847.461239,40 C959.614993,40 1000.28465,51.6775344 1041.28639,73.6055028 C1082.28813,95.5334713 1114.46653,127.711874 1136.3945,168.71361 C1158.32247,209.715346 1170,250.385007 1170,362.538761 L1170,847.461239 C1170,959.614993 1158.32247,1000.28465 1136.3945,1041.28639 C1114.46653,1082.28813 1082.28813,1114.46653 1041.28639,1136.3945 C1000.28465,1158.32247 959.614993,1170 847.461239,1170 L362.538761,1170 C250.385007,1170 209.715346,1158.32247 168.71361,1136.3945 C127.711874,1114.46653 95.5334713,1082.28813 73.6055028,1041.28639 C51.6775344,1000.28465 40,959.614993 40,847.461239 L40,362.538761 C40,250.385007 51.6775344,209.715346 73.6055028,168.71361 C95.5334713,127.711874 127.711874,95.5334713 168.71361,73.6055028 C209.715346,51.6775344 250.385007,40 362.538761,40 Z" id="Path" stroke-width="5.25581395" opacity="0.1"></path>
          <path d="M358.247412,30 L851.752588,30 C965.891364,30 1007.28084,41.8842164 1049.00827,64.2002905 C1090.7357,86.5163646 1123.48364,119.264296 1145.79971,160.991727 C1168.11578,202.719157 1180,244.108636 1180,358.247412 L1180,851.752588 C1180,965.891364 1168.11578,1007.28084 1145.79971,1049.00827 C1123.48364,1090.7357 1090.7357,1123.48364 1049.00827,1145.79971 C1007.28084,1168.11578 965.891364,1180 851.752588,1180 L358.247412,1180 C244.108636,1180 202.719157,1168.11578 160.991727,1145.79971 C119.264296,1123.48364 86.5163646,1090.7357 64.2002905,1049.00827 C41.8842164,1007.28084 30,965.891364 30,851.752588 L30,358.247412 C30,244.108636 41.8842164,202.719157 64.2002905,160.991727 C86.5163646,119.264296 119.264296,86.5163646 160.991727,64.2002905 C202.719157,41.8842164 244.108636,30 358.247412,30 Z" id="Path" stroke-width="5.34883721" opacity="0.08"></path>
          <path d="M353.956062,20 L856.043938,20 C972.167736,20 1014.27703,32.0908985 1056.73016,54.7950782 C1099.18328,77.4992579 1132.50074,110.816719 1155.20492,153.269844 C1177.9091,195.722969 1190,237.832264 1190,353.956062 L1190,856.043938 C1190,972.167736 1177.9091,1014.27703 1155.20492,1056.73016 C1132.50074,1099.18328 1099.18328,1132.50074 1056.73016,1155.20492 C1014.27703,1177.9091 972.167736,1190 856.043938,1190 L353.956062,1190 C237.832264,1190 195.722969,1177.9091 153.269844,1155.20492 C110.816719,1132.50074 77.4992579,1099.18328 54.7950782,1056.73016 C32.0908985,1014.27703 20,972.167736 20,856.043938 L20,353.956062 C20,237.832264 32.0908985,195.722969 54.7950782,153.269844 C77.4992579,110.816719 110.816719,77.4992579 153.269844,54.7950782 C195.722969,32.0908985 237.832264,20 353.956062,20 Z" id="Path" stroke-width="5.44186047" opacity="0.06"></path>
          <path d="M349.664713,10 L860.335287,10 C978.444107,10 1021.27322,22.2975805 1064.45204,45.3898658 C1107.63086,68.4821512 1141.51785,102.369141 1164.61013,145.547961 C1187.70242,188.72678 1200,231.555893 1200,349.664713 L1200,860.335287 C1200,978.444107 1187.70242,1021.27322 1164.61013,1064.45204 C1141.51785,1107.63086 1107.63086,1141.51785 1064.45204,1164.61013 C1021.27322,1187.70242 978.444107,1200 860.335287,1200 L349.664713,1200 C231.555893,1200 188.72678,1187.70242 145.547961,1164.61013 C102.369141,1141.51785 68.4821512,1107.63086 45.3898658,1064.45204 C22.2975805,1021.27322 10,978.444107 10,860.335287 L10,349.664713 C10,231.555893 22.2975805,188.72678 45.3898658,145.547961 C68.4821512,102.369141 102.369141,68.4821512 145.547961,45.3898658 C188.72678,22.2975805 231.555893,10 349.664713,10 Z" id="Path" stroke-width="5.53488372" opacity="0.04"></path>
          <path d="M345.373364,0 L864.626636,0 C984.720479,0 1028.26941,12.5042625 1072.17392,35.9846535 C1116.07844,59.4650444 1150.53496,93.9215639 1174.01535,137.826078 C1197.49574,181.730592 1210,225.279521 1210,345.373364 L1210,864.626636 C1210,984.720479 1197.49574,1028.26941 1174.01535,1072.17392 C1150.53496,1116.07844 1116.07844,1150.53496 1072.17392,1174.01535 C1028.26941,1197.49574 984.720479,1210 864.626636,1210 L345.373364,1210 C225.279521,1210 181.730592,1197.49574 137.826078,1174.01535 C93.9215639,1150.53496 59.4650444,1116.07844 35.9846535,1072.17392 C12.5042625,1028.26941 0,984.720479 0,864.626636 L0,345.373364 C0,225.279521 12.5042625,181.730592 35.9846535,137.826078 C59.4650444,93.9215639 93.9215639,59.4650444 137.826078,35.9846535 C181.730592,12.5042625 225.279521,0 345.373364,0 Z" id="Path" stroke-width="5.62790698" opacity="0.02"></path>
        </g>
      </g>
    </g>
  </g>
</svg>