<?xml version="1.0" standalone="no"?>
<!DOCTYPE svg PUBLIC "-//W3C//DTD SVG 20010904//EN"
 "http://www.w3.org/TR/2001/REC-SVG-20010904/DTD/svg10.dtd">
<svg version="1.0" xmlns="http://www.w3.org/2000/svg"
 width="1024.000000pt" height="1024.000000pt" viewBox="0 0 1024.000000 1024.000000"
 preserveAspectRatio="xMidYMid meet">
<metadata>
Created by potrace 1.11, written by Peter Selinger 2001-2013
</metadata>
<g transform="translate(0.000000,1024.000000) scale(0.100000,-0.100000)"
fill="#000000" stroke="none">
<path d="M0 5120 l0 -5120 5120 0 5120 0 0 3508 0 3507 -428 -430 c-236 -236
-1276 -1282 -2313 -2324 -1036 -1041 -1909 -1912 -1939 -1935 -125 -96 -271
-165 -405 -193 -62 -12 -80 -12 -142 1 -98 20 -209 66 -333 138 l-105 61 -828
831 c-1565 1572 -1939 1954 -1975 2024 -77 145 -108 290 -99 465 10 204 72
366 198 517 65 78 100 89 215 66 293 -57 872 -409 1719 -1045 373 -279 848
-654 1153 -909 l112 -94 43 38 c23 21 179 165 347 319 1776 1639 3687 3323
4642 4090 l137 110 1 748 0 747 -5120 0 -5120 0 0 -5120z"/>
</g>
</svg>
